<mxfile host="app.diagrams.net" modified="2020-10-25T14:47:50.872Z" agent="5.0 (Macintosh; Intel Mac OS X 10_15_7) AppleWebKit/537.36 (KHTML, like Gecko) Chrome/88.0.4292.2 Safari/537.36" etag="OvkJLEut0APVcmqyOVep" version="13.8.2" type="github">
  <diagram name="Page-1" id="b5b7bab2-c9e2-2cf4-8b2a-24fd1a2a6d21">
    <mxGraphModel dx="1186" dy="741" grid="1" gridSize="10" guides="1" tooltips="1" connect="1" arrows="1" fold="1" page="1" pageScale="1" pageWidth="827" pageHeight="1169" background="#ffffff" math="0" shadow="0">
      <root>
        <mxCell id="0" />
        <mxCell id="1" parent="0" />
        <mxCell id="WBoUn87it_00YbaUNWIz-2" value="&lt;font style=&quot;font-size: 16px&quot;&gt;客户端&lt;/font&gt;" style="html=1;dropTarget=0;align=left;" vertex="1" parent="1">
          <mxGeometry x="40" y="430" width="150" height="90" as="geometry" />
        </mxCell>
        <mxCell id="WBoUn87it_00YbaUNWIz-3" value="浏览器|收款机" style="shape=module;jettyWidth=8;jettyHeight=4;" vertex="1" parent="WBoUn87it_00YbaUNWIz-2">
          <mxGeometry x="1" width="88" height="40" relative="1" as="geometry">
            <mxPoint x="-95" y="7" as="offset" />
          </mxGeometry>
        </mxCell>
        <mxCell id="WBoUn87it_00YbaUNWIz-5" value="&lt;font style=&quot;font-size: 16px&quot;&gt;服务器&lt;/font&gt;" style="html=1;dropTarget=0;align=left;verticalAlign=top;" vertex="1" parent="1">
          <mxGeometry x="270" y="380" width="270" height="190" as="geometry" />
        </mxCell>
        <mxCell id="WBoUn87it_00YbaUNWIz-6" value="注册服务" style="shape=module;jettyWidth=8;jettyHeight=4;" vertex="1" parent="WBoUn87it_00YbaUNWIz-5">
          <mxGeometry x="1" width="88" height="40" relative="1" as="geometry">
            <mxPoint x="-126" y="23" as="offset" />
          </mxGeometry>
        </mxCell>
        <mxCell id="WBoUn87it_00YbaUNWIz-7" value="余额服务" style="shape=module;jettyWidth=8;jettyHeight=4;" vertex="1" parent="1">
          <mxGeometry x="414" y="455" width="88" height="40" as="geometry" />
        </mxCell>
        <mxCell id="WBoUn87it_00YbaUNWIz-8" value="消费记录服务" style="shape=module;jettyWidth=8;jettyHeight=4;" vertex="1" parent="1">
          <mxGeometry x="414" y="510" width="88" height="40" as="geometry" />
        </mxCell>
        <mxCell id="WBoUn87it_00YbaUNWIz-9" value="转发服务" style="shape=module;jettyWidth=8;jettyHeight=4;" vertex="1" parent="1">
          <mxGeometry x="289" y="455" width="88" height="40" as="geometry" />
        </mxCell>
        <mxCell id="WBoUn87it_00YbaUNWIz-10" value="TCP/IP" style="endArrow=classic;html=1;exitX=1;exitY=0.5;exitDx=0;exitDy=0;entryX=0;entryY=0.5;entryDx=0;entryDy=0;" edge="1" parent="1" source="WBoUn87it_00YbaUNWIz-2" target="WBoUn87it_00YbaUNWIz-5">
          <mxGeometry width="50" height="50" relative="1" as="geometry">
            <mxPoint x="400" y="570" as="sourcePoint" />
            <mxPoint x="450" y="520" as="targetPoint" />
          </mxGeometry>
        </mxCell>
        <mxCell id="WBoUn87it_00YbaUNWIz-13" value="" style="endArrow=open;html=1;exitX=1;exitY=0.5;exitDx=0;exitDy=0;entryX=0;entryY=0.75;entryDx=4;entryDy=0;entryPerimeter=0;dashed=1;endFill=0;" edge="1" parent="1" source="WBoUn87it_00YbaUNWIz-9" target="WBoUn87it_00YbaUNWIz-8">
          <mxGeometry width="50" height="50" relative="1" as="geometry">
            <mxPoint x="460" y="710" as="sourcePoint" />
            <mxPoint x="510" y="660" as="targetPoint" />
          </mxGeometry>
        </mxCell>
        <mxCell id="WBoUn87it_00YbaUNWIz-15" value="" style="endArrow=open;html=1;entryX=0;entryY=0.75;entryDx=4;entryDy=0;entryPerimeter=0;dashed=1;endFill=0;" edge="1" parent="1" target="WBoUn87it_00YbaUNWIz-7">
          <mxGeometry width="50" height="50" relative="1" as="geometry">
            <mxPoint x="380" y="475" as="sourcePoint" />
            <mxPoint x="428" y="550" as="targetPoint" />
          </mxGeometry>
        </mxCell>
        <mxCell id="WBoUn87it_00YbaUNWIz-16" value="" style="endArrow=open;html=1;exitX=1;exitY=0.5;exitDx=0;exitDy=0;entryX=0;entryY=0.75;entryDx=4;entryDy=0;entryPerimeter=0;dashed=1;endFill=0;" edge="1" parent="1" source="WBoUn87it_00YbaUNWIz-9" target="WBoUn87it_00YbaUNWIz-6">
          <mxGeometry width="50" height="50" relative="1" as="geometry">
            <mxPoint x="387" y="485" as="sourcePoint" />
            <mxPoint x="428" y="550" as="targetPoint" />
          </mxGeometry>
        </mxCell>
      </root>
    </mxGraphModel>
  </diagram>
</mxfile>
